<svg width="200" height="60" viewBox="0 0 200 60" fill="none" xmlns="http://www.w3.org/2000/svg">
  <!-- Icône à gauche -->
  <rect x="5" y="5" width="50" height="50" rx="12" fill="url(#logoGradient)"/>
  <path d="M18 18C18 16.8954 18.8954 16 20 16H32L42 26V42C42 43.1046 41.1046 44 40 44H20C18.8954 44 18 43.1046 18 42V18Z" fill="white" opacity="0.9"/>
  <path d="M32 16V24C32 25.1046 32.8954 26 34 26H42" fill="white" opacity="0.7"/>
  <path d="M24 32L28 36L36 26" stroke="#3B82F6" stroke-width="3" stroke-linecap="round" stroke-linejoin="round"/>
  <line x1="22" y1="28" x2="30" y2="28" stroke="#3B82F6" stroke-width="2" stroke-linecap="round" opacity="0.6"/>
  <line x1="22" y1="38" x2="34" y2="38" stroke="#3B82F6" stroke-width="2" stroke-linecap="round" opacity="0.6"/>
  
  <!-- Texte "ApplicationTrack" -->
  <text x="65" y="25" font-family="Arial, sans-serif" font-size="16" font-weight="bold" fill="#1F2937">
    Application
  </text>
  <text x="65" y="42" font-family="Arial, sans-serif" font-size="16" font-weight="bold" fill="#3B82F6">
    Track
  </text>
  
  <!-- Dégradé -->
  <defs>
    <linearGradient id="logoGradient" x1="5" y1="5" x2="55" y2="55" gradientUnits="userSpaceOnUse">
      <stop offset="0%" stop-color="#3B82F6"/>
      <stop offset="100%" stop-color="#6366F1"/>
    </linearGradient>
  </defs>
</svg>
